<svg width="15" height="47" xmlns="http://www.w3.org/2000/svg" xmlns:xlink="http://www.w3.org/1999/xlink" xmlns:svgjs="http://svgjs.com/svgjs" viewBox="0.349 0 14.302 47" fill="#ec644b"><svg xmlns="http://www.w3.org/2000/svg" width="15" height="47" viewBox="2.005 1.991 14.008 46.034"><path paint-order="stroke fill markers" fill-rule="evenodd" d="M15.806 46.334L3.019 24.626c-.228-.387-.597-.387-.825 0-.228.386-.228 1.014 0 1.4L14.98 47.735c.228.387.597.387.825 0 .228-.387.228-1.014 0-1.4zm.036-42.646L3.004 25.482c-.228.388-.599.388-.828 0-.228-.388-.228-1.018 0-1.406L15.013 2.282c.229-.388.6-.388.829 0 .228.388.228 1.018 0 1.406z"/></svg></svg>