<svg width="15" height="47" xmlns="http://www.w3.org/2000/svg" xmlns:xlink="http://www.w3.org/1999/xlink" xmlns:svgjs="http://svgjs.com/svgjs" viewBox="0.349 0 14.302 47" fill="#ec644b"><svg xmlns="http://www.w3.org/2000/svg" width="15" height="47" viewBox="1.987 2.022 14.008 46.035"><path paint-order="stroke fill markers" fill-rule="evenodd" d="M2.194 46.366l12.787-21.71c.227-.386.597-.386.825 0 .228.388.228 1.015 0 1.402L3.019 47.766c-.228.387-.597.387-.825 0-.228-.386-.228-1.014 0-1.4zM2.158 3.719l12.837 21.794c.229.389.6.389.828 0 .229-.388.229-1.017 0-1.406L2.986 2.313c-.228-.388-.6-.388-.828 0-.229.389-.229 1.018 0 1.406z"/></svg></svg>